<?xml version="1.0" encoding="utf-8"?>
<!-- Generator: Adobe Illustrator 28.0.0, SVG Export Plug-In . SVG Version: 6.00 Build 0)  -->
<svg version="1.1" id="Layer_1" xmlns="http://www.w3.org/2000/svg" xmlns:xlink="http://www.w3.org/1999/xlink" x="0px" y="0px"
	 viewBox="0 0 32 32" style="enable-background:new 0 0 32 32;" xml:space="preserve">
<style type="text/css">
	.st0{opacity:0.4;fill:#1C1917;}
	.st1{fill:#EFE8E8;}
</style>
<path class="st0" d="M15.9,31.9c8.7,0,15.9-7.2,15.9-15.9c0-8.7-7.2-15.9-16-15.9C7.2,0,0,7.2,0,15.9C0,24.6,7.2,31.9,15.9,31.9z"/>
<path class="st1" d="M15.9,29.5c-3.6,0-7.2-1.5-9.6-4c1.7-2.7,5.4-4.2,9.6-4.2c4.2,0,7.9,1.5,9.6,4.2C23.1,28,19.5,29.5,15.9,29.5z
	 M15.9,18.6c-3,0-5.4-2.5-5.4-5.9c0-3.2,2.4-5.8,5.4-5.8c3,0,5.4,2.6,5.4,5.8C21.3,16.1,18.9,18.6,15.9,18.6L15.9,18.6z"/>
</svg>
